<?xml version="1.0" standalone="no"?>
<!DOCTYPE svg PUBLIC "-//W3C//DTD SVG 20010904//EN"
 "http://www.w3.org/TR/2001/REC-SVG-20010904/DTD/svg10.dtd">
<svg version="1.0" xmlns="http://www.w3.org/2000/svg"
 width="225.000000pt" height="225.000000pt" viewBox="0 0 225.000000 225.000000"
 preserveAspectRatio="xMidYMid meet">
<metadata>
Created by potrace 1.14, written by Peter Selinger 2001-2017
</metadata>
<g transform="translate(0.000000,225.000000) scale(0.100000,-0.100000)"
fill="#000000" stroke="none">
<path d="M0 1125 l0 -1125 1125 0 1125 0 0 1125 0 1125 -1125 0 -1125 0 0
-1125z m1279 689 c442 -110 670 -604 466 -1010 -104 -205 -308 -352 -533 -382
-100 -14 -102 -11 -102 167 0 103 4 152 13 162 6 9 40 23 75 33 78 20 127 51
180 111 114 130 113 334 -4 464 -48 53 -148 111 -193 111 -15 0 -37 7 -49 16
-21 14 -22 21 -22 168 0 105 4 156 12 164 17 17 80 15 157 -4z m-535 -350 c14
-13 16 -58 16 -335 0 -202 -4 -327 -10 -340 -24 -44 -54 -25 -192 127 -144
157 -164 188 -154 228 8 34 284 336 307 336 10 0 25 -7 33 -16z"/>
</g>
</svg>
